<svg width="371" height="188" viewBox="0 0 371 188" fill="none" xmlns="http://www.w3.org/2000/svg">
<path d="M17 102.333V74L94 116.344V143.497L17 102.333Z" fill="black" stroke="black"/>
<path d="M94 81.3333V53L171 95.3441V122.497L94 81.3333Z" fill="black" stroke="black"/>
<circle cx="94" cy="94" r="85" stroke="black" stroke-width="18"/>
<path d="M211.697 103.472C211.751 104.093 211.569 104.639 211.152 105.109C210.761 105.6 210.255 105.873 209.633 105.927C209.012 105.981 208.454 105.801 207.96 105.386C207.493 104.993 207.232 104.485 207.178 103.864C207.124 103.242 207.293 102.685 207.684 102.194C208.099 101.7 208.617 101.426 209.239 101.372C209.86 101.318 210.406 101.5 210.876 101.917C211.369 102.332 211.643 102.85 211.697 103.472ZM236.084 98.7552C236.085 99.0442 236.075 99.3462 236.054 99.6612C236.033 99.9761 235.974 100.27 235.878 100.544C235.783 100.841 235.646 101.07 235.467 101.23C235.225 101.492 234.926 101.65 234.569 101.705C234.245 101.854 233.925 101.918 233.61 101.897C233.295 101.876 233.001 101.817 232.727 101.72C232.374 101.534 232.101 101.305 231.909 101.032C231.739 100.734 231.603 100.421 231.502 100.092C231.401 99.7635 231.335 99.4199 231.304 99.0612C231.273 98.7026 231.244 98.3679 231.217 98.057L230.975 95.2595L230.463 89.7752C230.43 89.3927 230.404 89.0938 230.385 88.8786C230.367 88.6634 230.35 88.4721 230.335 88.3047C230.319 88.1135 230.289 87.9113 230.247 87.6981C230.226 87.459 230.197 87.1243 230.16 86.6939C230.153 86.6222 230.143 86.5026 230.129 86.3353C230.136 86.1419 230.081 85.6528 229.965 84.8679C229.167 86.5029 228.499 87.8256 227.96 88.8359C227.444 89.8202 226.993 90.5941 226.608 91.1574C226.245 91.6948 225.916 92.0726 225.622 92.2908C225.326 92.4852 225.011 92.6088 224.679 92.6617C224.49 92.7022 224.295 92.683 224.096 92.6039C223.896 92.5249 223.694 92.4219 223.491 92.295C223.311 92.1661 223.131 92.0371 222.951 91.9082C222.793 91.7532 222.66 91.6082 222.552 91.473C221.916 90.8055 221.196 90.0007 220.391 89.0587C219.587 88.1166 218.74 86.9615 217.851 85.5932C217.853 85.6171 217.875 86.0127 217.917 86.7799C217.984 87.545 218.067 88.5014 218.166 89.6491C218.264 90.7729 218.357 91.9934 218.447 93.3105C218.559 94.6017 218.652 95.8102 218.726 96.936C218.823 98.0598 218.893 99.0053 218.936 99.7725C218.976 100.516 218.984 100.888 218.96 100.891C218.996 101.297 218.933 101.688 218.773 102.063C218.611 102.414 218.371 102.712 218.055 102.956C217.763 103.199 217.403 103.35 216.975 103.412C216.546 103.473 216.07 103.394 215.545 103.174C215.217 103.01 214.954 102.756 214.756 102.411C214.581 102.065 214.457 101.739 214.382 101.432C214.329 101.099 214.277 100.779 214.226 100.47C214.199 100.159 214.171 99.8364 214.142 99.5016L213.936 96.701L213.492 91.1746L213.076 86.3687C212.895 84.2885 212.79 82.2379 212.759 80.217C212.736 79.954 212.739 79.7128 212.769 79.4935C212.82 79.2482 212.884 79.0138 212.96 78.7903C213.119 78.3911 213.345 78.0824 213.639 77.8642C213.979 77.6179 214.352 77.4771 214.759 77.4419C214.926 77.4274 215.083 77.4258 215.228 77.4373C215.395 77.4228 215.552 77.4213 215.697 77.4327C216.184 77.4869 216.615 77.7386 216.992 78.1878C217.39 78.6109 217.759 78.9764 218.098 79.2842C218.308 79.4828 218.534 79.7282 218.777 80.0204C219.019 80.3126 219.262 80.6167 219.506 80.9328C219.75 81.2489 219.982 81.554 220.2 81.8483C220.418 82.1425 220.609 82.403 220.773 82.6296C221.482 83.5799 222.112 84.4528 222.663 85.2482C223.237 86.0415 223.766 86.7184 224.248 87.2788C224.314 87.2009 224.389 87.098 224.474 86.9701C224.557 86.8184 224.641 86.6666 224.724 86.5149C224.829 86.3371 224.911 86.1734 224.97 86.0237C225.054 85.872 225.115 85.7462 225.154 85.6464C225.36 85.2431 225.567 84.8518 225.775 84.4724C225.981 84.0691 226.198 83.6528 226.426 83.2235C226.675 82.7682 226.922 82.2771 227.165 81.7501C227.433 81.221 227.742 80.6161 228.092 79.9353C228.234 79.6338 228.42 79.2685 228.647 78.8392C228.875 78.4099 229.14 77.9895 229.441 77.5779C229.743 77.1663 230.062 76.8134 230.397 76.5193C230.755 76.1992 231.125 76.0226 231.508 75.9894C231.699 75.9728 231.868 75.9703 232.013 75.9817C232.157 75.9693 232.301 75.9688 232.447 75.9803C232.736 75.9793 233.022 76.087 233.306 76.3033C233.514 76.4779 233.675 76.6687 233.789 76.8756C233.912 77.1782 233.994 77.436 234.037 77.6491C234.075 77.8144 234.101 77.9688 234.113 78.1123C234.149 78.2537 234.174 78.3961 234.186 78.5395C234.302 79.8785 234.429 81.2045 234.567 82.5175C234.705 83.8305 234.832 85.1565 234.948 86.4954C235.089 88.1213 235.235 89.7951 235.384 91.5166C235.557 93.2361 235.714 94.9087 235.855 96.5346C235.884 96.8694 235.927 97.227 235.984 97.6075C236.041 97.988 236.075 98.3706 236.084 98.7552ZM261.146 96.7264C261.182 96.8678 261.206 97.0102 261.219 97.1537C261.253 97.2711 261.278 97.4136 261.292 97.5809C261.317 97.8679 261.256 98.1381 261.109 98.3918C261.048 98.5175 260.963 98.6454 260.854 98.7753C260.742 98.8813 260.606 98.9774 260.445 99.0637C259.876 99.4502 259.253 99.6247 258.575 99.5872C258.232 99.5206 257.92 99.3911 257.638 99.1987C257.586 99.155 257.548 99.1342 257.524 99.1363C257.498 99.1144 257.471 99.0806 257.443 99.0349C257.417 99.0131 257.391 98.9912 257.365 98.9694C257.337 98.9236 257.298 98.8909 257.248 98.8711C257.119 98.7619 257.014 98.6626 256.934 98.5732C256.851 98.4599 256.769 98.3465 256.687 98.2332C256.629 98.1178 256.56 98.0154 256.48 97.926C256.422 97.8106 256.352 97.6962 256.269 97.5829C256.213 97.4914 256.158 97.4118 256.104 97.3443C256.048 97.2528 256.004 97.1602 255.972 97.0667C255.857 96.8598 255.781 96.6737 255.743 96.5084L254.837 94.8163C253.187 94.9594 251.539 95.1144 249.891 95.2814C248.265 95.4223 246.626 95.5524 244.974 95.6716L244.373 97.4943C244.334 97.5941 244.306 97.6928 244.291 97.7906C244.299 97.8862 244.283 97.9839 244.244 98.0837C244.204 98.1835 244.165 98.2833 244.125 98.3831C244.108 98.4569 244.079 98.5437 244.039 98.6435C243.978 98.7692 243.917 98.895 243.855 99.0208C243.816 99.1206 243.765 99.2333 243.704 99.3591C243.666 99.4828 243.617 99.6075 243.556 99.7333C243.492 99.8352 243.406 99.9511 243.297 100.081C243.251 100.109 243.218 100.148 243.199 100.198C243.177 100.224 243.155 100.25 243.133 100.276C243.113 100.326 243.092 100.364 243.071 100.39C243.047 100.392 243.013 100.419 242.969 100.471C242.725 100.709 242.439 100.89 242.113 101.015C241.452 101.168 240.808 101.104 240.181 100.821C240.007 100.764 239.857 100.692 239.729 100.607C239.599 100.498 239.493 100.387 239.411 100.273C239.223 100.049 239.116 99.7931 239.091 99.5062C239.077 99.3388 239.064 99.1953 239.054 99.0758C239.066 98.9302 239.077 98.7847 239.088 98.6392C239.118 98.4198 239.159 98.1995 239.212 97.978C239.265 97.7566 239.291 97.6459 239.291 97.6459L245.159 78.6359L245.324 78.0434C245.36 77.8958 245.408 77.7591 245.47 77.6333C245.531 77.5076 245.578 77.3589 245.612 77.1874C245.704 76.8662 245.812 76.5798 245.935 76.3283C245.994 76.1786 246.066 76.0398 246.151 75.912C246.237 75.7841 246.322 75.6563 246.407 75.5285C246.534 75.3247 246.724 75.1517 246.976 75.0093C247.301 74.8608 247.678 74.7678 248.109 74.7305C248.563 74.6911 248.963 74.7166 249.308 74.8072C249.581 74.9039 249.798 75.0417 249.958 75.2205C250.144 75.4212 250.345 75.6567 250.561 75.9271C250.725 76.1537 250.881 76.4173 251.027 76.7178C251.09 76.881 251.162 77.0193 251.244 77.1326C251.326 77.2459 251.397 77.3722 251.457 77.5116L251.722 78.0667L260.775 95.7829C260.775 95.7829 260.82 95.8874 260.91 96.0964C261.001 96.3053 261.079 96.5153 261.146 96.7264ZM251.884 88.6765C251.513 88.01 251.128 87.3207 250.729 86.6085C250.354 85.8943 249.953 85.1701 249.528 84.4361C249.414 84.2292 249.3 84.0223 249.186 83.8154C249.069 83.5846 248.954 83.3657 248.84 83.1588C248.786 83.3803 248.722 83.6147 248.648 83.8621C248.571 84.0855 248.494 84.309 248.417 84.5325C248.124 85.3288 247.843 86.112 247.572 86.8822C247.326 87.6504 247.077 88.3947 246.827 89.115L246.318 90.7491L252.666 90.1986L251.884 88.6765ZM280.639 94.7468C280.698 94.8622 280.737 95.0395 280.758 95.2786C280.776 95.4938 280.792 95.6731 280.804 95.8166C280.821 96.0079 280.801 96.1903 280.744 96.3639C280.686 96.5375 280.604 96.7012 280.497 96.855C280.307 97.1606 280.015 97.4028 279.621 97.5815C279.063 97.8225 278.534 97.9648 278.031 98.0084C277.771 98.0551 277.497 98.0909 277.21 98.1158C276.923 98.1406 276.638 98.1894 276.355 98.2621L276.212 98.2746C274.373 98.4581 272.472 98.623 270.509 98.7691C270.029 98.7866 269.491 98.8333 268.895 98.909C268.302 99.0087 267.715 99.0476 267.135 99.0256C266.557 99.0275 266.019 98.9416 265.522 98.7679C265.047 98.5682 264.692 98.2256 264.458 97.7401C264.399 97.6247 264.354 97.5202 264.322 97.4266C264.288 97.3091 264.265 97.1906 264.255 97.0711C264.089 96.2664 263.984 95.4685 263.939 94.6774C263.894 93.8863 263.839 93.1082 263.773 92.343L263.393 87.1363L262.977 82.3304C262.902 81.4696 262.836 80.7045 262.778 80.035C262.743 79.3634 262.703 78.6201 262.657 77.8051L262.641 77.6258C262.644 77.3846 262.635 77.1445 262.615 76.9054C262.618 76.6642 262.609 76.4241 262.588 76.185C262.588 75.6309 262.68 75.1532 262.862 74.752C262.974 74.3809 263.2 74.0722 263.54 73.8259C263.832 73.5838 264.194 73.444 264.624 73.4067C264.791 73.3922 264.948 73.3907 265.093 73.4021C265.261 73.3876 265.417 73.3861 265.563 73.3976C265.708 73.409 265.844 73.4455 265.97 73.5068C266.119 73.5661 266.271 73.6493 266.425 73.7564C266.583 73.9114 266.732 74.1032 266.872 74.3319C266.991 74.5866 267.073 74.8445 267.12 75.1054C267.158 75.2707 267.196 75.424 267.232 75.5654C267.269 75.7068 267.293 75.8493 267.305 75.9927C267.27 76.1403 267.258 76.2859 267.271 76.4293C267.283 76.5728 267.295 76.7043 267.305 76.8238L267.361 77.4694L268.683 94.3745L275.79 93.8304L277.476 93.6842C277.619 93.6717 277.776 93.6702 277.945 93.6796C278.113 93.6651 278.281 93.6625 278.45 93.6719C278.644 93.6793 278.813 93.6887 278.959 93.7001C279.104 93.7116 279.251 93.735 279.398 93.7704C279.668 93.8193 279.893 93.9202 280.075 94.0731C280.359 94.2894 280.547 94.514 280.639 94.7468ZM300.148 93.0551C300.206 93.1705 300.246 93.3477 300.267 93.5868C300.285 93.802 300.301 93.9813 300.313 94.1248C300.33 94.3161 300.31 94.4985 300.252 94.6721C300.195 94.8457 300.113 95.0094 300.006 95.1632C299.816 95.4688 299.523 95.711 299.129 95.8897C298.572 96.1307 298.042 96.273 297.54 96.3166C297.279 96.3633 297.005 96.3991 296.718 96.424C296.432 96.4489 296.147 96.4976 295.864 96.5703L295.72 96.5828C293.881 96.7664 291.981 96.9312 290.018 97.0773C289.538 97.0949 289 97.1415 288.404 97.2173C287.81 97.3169 287.223 97.3558 286.643 97.3338C286.065 97.3357 285.528 97.2499 285.031 97.0761C284.556 96.8764 284.201 96.5338 283.966 96.0483C283.908 95.9329 283.863 95.8284 283.831 95.7348C283.796 95.6173 283.774 95.4988 283.764 95.3793C283.598 94.5746 283.492 93.7767 283.448 92.9856C283.403 92.1945 283.348 91.4164 283.282 90.6513L282.902 85.4446L282.486 80.6386C282.411 79.7778 282.345 79.0127 282.286 78.3432C282.252 77.6717 282.212 76.9284 282.165 76.1133L282.15 75.934C282.153 75.6928 282.144 75.4527 282.123 75.2136C282.127 74.9724 282.118 74.7323 282.097 74.4932C282.097 73.9391 282.188 73.4614 282.37 73.0602C282.483 72.6891 282.709 72.3804 283.049 72.1341C283.341 71.892 283.702 71.7522 284.133 71.7149C284.3 71.7004 284.457 71.6989 284.602 71.7104C284.769 71.6958 284.926 71.6943 285.071 71.7058C285.217 71.7173 285.353 71.7537 285.478 71.815C285.628 71.8743 285.78 71.9575 285.934 72.0646C286.092 72.2196 286.241 72.4114 286.381 72.6401C286.499 72.8949 286.582 73.1527 286.629 73.4136C286.667 73.5789 286.705 73.7323 286.741 73.8737C286.777 74.015 286.802 74.1575 286.814 74.3009C286.779 74.4485 286.767 74.5941 286.78 74.7375C286.792 74.881 286.804 75.0125 286.814 75.1321L286.87 75.7776L288.191 92.6827L295.299 92.1386L296.985 91.9924C297.128 91.98 297.285 91.9784 297.454 91.9878C297.621 91.9733 297.79 91.9708 297.959 91.9802C298.153 91.9875 298.322 91.9969 298.468 92.0084C298.613 92.0198 298.76 92.0432 298.907 92.0786C299.176 92.1276 299.402 92.2284 299.584 92.3813C299.868 92.5976 300.056 92.8222 300.148 93.0551ZM306.408 74.011L306.825 79.6481L308.26 79.5237C309.238 79.4148 310.11 79.3271 310.875 79.2608C311.64 79.1944 312.49 79.1328 313.424 79.0758L313.604 79.0603C313.89 79.0354 314.166 79.0235 314.432 79.0246C314.718 78.9997 314.993 78.9759 315.256 78.9531C315.545 78.9521 315.825 78.9761 316.094 79.025C316.361 79.05 316.629 79.087 316.898 79.1359C317.317 79.2441 317.671 79.4303 317.959 79.6944C318.225 79.9845 318.374 80.3208 318.407 80.7034C318.418 80.8229 318.43 80.9664 318.445 81.1338C318.457 81.2772 318.445 81.4108 318.407 81.5345C318.382 81.8017 318.248 82.0543 318.003 82.2923C317.898 82.47 317.681 82.6092 317.353 82.71C317.05 82.8326 316.745 82.9193 316.436 82.9702C316.107 83.071 315.776 83.1358 315.441 83.1649L313.755 83.3111L307.123 83.9223L307.661 90.9581L314.805 90.4109L316.49 90.2648C316.682 90.2482 316.861 90.2326 317.028 90.2181C317.196 90.2036 317.352 90.2021 317.498 90.2135C317.693 90.2448 317.864 90.2661 318.009 90.2776C318.176 90.2631 318.334 90.2735 318.482 90.3089C318.777 90.3797 319.027 90.4904 319.233 90.6412C319.493 90.8596 319.67 91.0972 319.765 91.354C319.799 91.4714 319.822 91.6019 319.835 91.7454C319.869 91.8628 319.88 91.9943 319.869 92.1399C319.902 92.5224 319.813 92.8795 319.601 93.2111C319.343 93.5707 319.027 93.8149 318.652 93.9437C318.169 94.2025 317.628 94.3578 317.03 94.4096C316.769 94.4563 316.496 94.4921 316.209 94.517C315.922 94.5419 315.648 94.5777 315.387 94.6244L315.172 94.6431C313.311 94.8526 311.374 95.0206 309.361 95.1469C308.883 95.1884 308.5 95.2096 308.211 95.2106C307.924 95.2355 307.661 95.2583 307.422 95.279C307.206 95.2977 306.979 95.3174 306.74 95.3381C306.501 95.3588 306.19 95.3858 305.808 95.419C305.262 95.5145 304.799 95.4582 304.42 95.2502C304.142 95.1057 303.919 94.8961 303.751 94.6217C303.673 94.5561 303.631 94.4875 303.625 94.4158C303.597 94.37 303.57 94.3363 303.544 94.3144C303.518 94.2926 303.491 94.2588 303.463 94.213C303.405 94.0976 303.358 93.9812 303.324 93.8637C303.288 93.7223 303.264 93.5919 303.254 93.4723C303.22 93.3548 303.185 93.2374 303.151 93.1199C303.141 93.0003 303.118 92.8818 303.084 92.7643L303.034 92.1905C303.026 92.0948 303.018 91.9992 303.01 91.9036C303.025 91.8058 303.029 91.7092 303.02 91.6135L302.778 88.816L302.402 83.6452L301.988 78.8751C301.913 78.0143 301.847 77.2492 301.789 76.5797C301.755 75.9081 301.716 75.1768 301.671 74.3857L301.656 74.2064C301.657 73.9413 301.648 73.7011 301.629 73.486C301.632 73.2448 301.624 73.0046 301.603 72.7655C301.585 72.2853 301.676 71.8076 301.876 71.3326C301.955 71.133 302.036 70.9573 302.119 70.8056C302.227 70.6517 302.372 70.5187 302.555 70.4065C302.895 70.1602 303.256 70.0205 303.638 69.9873C303.83 69.9707 303.974 69.9702 304.072 69.9858L304.069 69.95C304.499 69.9126 304.846 69.8826 305.109 69.8598C305.372 69.837 305.623 69.8152 305.862 69.7945C306.125 69.7716 306.4 69.7478 306.687 69.7229C306.972 69.6741 307.365 69.628 307.867 69.5844C308.822 69.4776 309.729 69.3868 310.59 69.3122C311.451 69.2375 312.337 69.1728 313.247 69.1179L313.391 69.1054C313.656 69.1065 313.932 69.0947 314.219 69.0698C314.506 69.0449 314.782 69.033 315.047 69.0341C315.31 69.0113 315.576 69.0244 315.845 69.0733C316.112 69.0983 316.381 69.1472 316.653 69.22C317.07 69.3043 317.422 69.4786 317.71 69.7427C317.954 70.0588 318.091 70.3842 318.12 70.7189C318.132 70.8624 318.145 71.0058 318.157 71.1493C318.167 71.2688 318.154 71.3905 318.116 71.5142C318.113 71.7553 317.992 72.0188 317.751 72.3047C317.66 72.3608 317.557 72.4299 317.444 72.512C317.355 72.592 317.24 72.6622 317.101 72.7224C316.962 72.7827 316.809 72.832 316.644 72.8704C316.501 72.8829 316.358 72.9073 316.217 72.9436C316.03 73.008 315.852 73.0475 315.685 73.062C315.542 73.0745 315.374 73.089 315.183 73.1056L313.569 73.2455L306.399 73.9034L306.408 74.011ZM339.999 67.882C340.289 68.1701 340.449 68.4815 340.478 68.8162C340.49 68.9597 340.492 69.1161 340.482 69.2856C340.495 69.429 340.494 69.5616 340.481 69.6832C340.432 69.9524 340.298 70.217 340.08 70.4768C339.901 70.6368 339.647 70.7672 339.319 70.868C339.155 70.9303 338.991 70.9807 338.826 71.0191C338.661 71.0576 338.484 71.109 338.297 71.1734C338.132 71.2118 337.966 71.2383 337.798 71.2528C337.631 71.2673 337.451 71.2829 337.26 71.2995L335.431 71.4581C335.003 71.5193 334.573 71.5686 334.143 71.6059C333.737 71.6412 333.33 71.6764 332.924 71.7117C333.012 72.4508 333.093 73.2508 333.168 74.1115C333.24 74.9484 333.313 75.9297 333.387 77.0556C333.484 78.1794 333.585 79.4835 333.69 80.968C333.819 82.4505 333.968 84.172 334.138 86.1327L334.374 88.8584C334.395 89.0975 334.423 89.2758 334.457 89.3933C334.465 89.4889 334.473 89.5846 334.482 89.6802C334.488 89.752 334.484 89.8486 334.471 89.9703C334.442 90.1896 334.428 90.4438 334.429 90.7328C334.439 90.8523 334.437 90.9729 334.424 91.0945C334.408 91.1922 334.382 91.3029 334.344 91.4266C334.257 91.5306 334.215 91.6065 334.219 91.6543L334.13 91.8788C334.032 92.1283 333.824 92.3751 333.508 92.6193C333.005 92.928 332.424 93.0385 331.766 92.9511C331.356 92.9385 331.035 92.8578 330.806 92.7091C330.572 92.5126 330.398 92.3109 330.283 92.104C330.117 91.8534 330.012 91.6096 329.967 91.3726C329.877 91.1636 329.821 90.9396 329.8 90.7005L328.202 72.2657C328.058 72.2781 327.759 72.304 327.305 72.3434C326.851 72.3828 326.361 72.4253 325.835 72.4709C325.33 72.4906 324.85 72.5081 324.394 72.5236C323.937 72.5391 323.625 72.5421 323.455 72.5327C323.31 72.5213 323.079 72.5051 322.764 72.4842C322.473 72.4613 322.23 72.4342 322.035 72.403C321.52 72.3031 321.106 72.1101 320.792 71.8242C320.502 71.5362 320.34 71.2009 320.307 70.8183C320.295 70.6748 320.282 70.5314 320.27 70.3879C320.257 70.2445 320.27 70.1109 320.307 69.9872C320.354 69.694 320.525 69.4383 320.819 69.2201C320.908 69.1401 321.045 69.044 321.228 68.9317C321.432 68.7935 321.628 68.6922 321.816 68.6278C322.094 68.5073 322.447 68.4044 322.873 68.3193C323.062 68.2788 323.252 68.2503 323.444 68.2337C323.635 68.2171 323.838 68.1995 324.053 68.1808C324.89 68.1082 325.679 68.0398 326.42 67.9755C327.186 67.9092 327.986 67.8278 328.82 67.7313C330.205 67.5871 331.58 67.4679 332.945 67.3736C334.332 67.2533 335.709 67.158 337.076 67.0877C337.389 67.0846 337.691 67.0946 337.982 67.1175C338.273 67.1404 338.567 67.1992 338.864 67.2939C339.086 67.347 339.297 67.425 339.499 67.528C339.698 67.607 339.865 67.725 339.999 67.882ZM361.941 79.9274C362.089 80.2518 362.206 80.6271 362.291 81.0534C362.398 81.4536 362.471 81.8689 362.508 82.2993C362.545 82.7297 362.547 83.1632 362.512 83.5998C362.5 84.0104 362.459 84.3753 362.39 84.6944C362.124 86.0666 361.456 87.2567 360.387 88.2648C359.316 89.249 358.057 90.0087 356.61 90.5437C355.187 91.0766 353.681 91.3518 352.093 91.3691C350.528 91.3843 349.107 91.11 347.829 90.5463C347.027 90.1823 346.324 89.7133 345.72 89.1393C345.116 88.5653 344.59 87.9123 344.141 87.1804C343.975 86.9298 343.853 86.6392 343.776 86.3086C343.721 85.952 343.728 85.6142 343.797 85.2951C343.863 84.952 343.994 84.6516 344.188 84.3939C344.381 84.1122 344.664 83.9069 345.038 83.7781C345.273 83.7096 345.534 83.6629 345.821 83.638C346.132 83.611 346.435 83.6329 346.73 83.7037C347.023 83.7505 347.298 83.8592 347.553 84.0298C347.807 84.1764 348.019 84.3989 348.19 84.6973C348.496 85.1766 348.907 85.6107 349.423 85.9997C349.96 86.3626 350.515 86.6517 351.088 86.867C351.9 87.0616 352.698 87.1008 353.483 86.9845C354.292 86.8662 355.005 86.6237 355.624 86.2568C356.267 85.888 356.768 85.4229 357.129 84.8616C357.488 84.2764 357.637 83.6371 357.577 82.9437C357.527 82.3699 357.403 81.9109 357.205 81.5667C357.004 81.1987 356.738 80.9086 356.407 80.6964C356.097 80.4583 355.72 80.2742 355.275 80.1442C354.854 80.0121 354.387 79.908 353.874 79.832C353.29 79.7622 352.697 79.7293 352.095 79.7333C351.517 79.7353 350.926 79.7263 350.322 79.7064C349.718 79.6865 349.124 79.6417 348.54 79.5719C347.956 79.5021 347.378 79.3715 346.808 79.1801C345.668 78.8212 344.771 78.2003 344.117 77.3176C343.462 76.4349 343.028 75.4607 342.815 74.3951C342.626 73.3274 342.666 72.252 342.933 71.1689C343.198 70.0618 343.692 69.0915 344.415 68.2579C345.12 67.4982 345.986 66.9292 347.013 66.5511C348.062 66.1469 349.23 65.865 350.517 65.7052C351.233 65.6191 351.952 65.5808 352.676 65.5903C353.423 65.5978 354.139 65.6561 354.823 65.7655C355.531 65.8727 356.183 66.0329 356.78 66.2462C357.4 66.4574 357.941 66.7236 358.403 67.045C358.734 67.2571 359.073 67.5529 359.419 67.9325C359.763 68.2881 360.039 68.6858 360.245 69.1255C360.45 69.5414 360.534 69.9557 360.498 70.3684C360.485 70.779 360.264 71.1475 359.835 71.4738C359.473 71.7461 359.112 71.8858 358.751 71.893C358.412 71.8742 358.08 71.7946 357.754 71.6542C357.427 71.4899 357.109 71.3006 356.802 71.0864C356.494 70.8722 356.212 70.6798 355.957 70.5092C355.27 70.087 354.441 69.8337 353.47 69.7492C352.499 69.6648 351.599 69.7067 350.771 69.8749C350.251 69.9923 349.771 70.1543 349.331 70.3611C348.891 70.5678 348.517 70.8292 348.207 71.1452C347.921 71.459 347.701 71.8395 347.547 72.2864C347.415 72.7074 347.395 73.1789 347.489 73.7007C347.546 74.0812 347.682 74.3947 347.896 74.6411C348.134 74.8855 348.403 75.0789 348.705 75.2214C349.03 75.3618 349.376 75.4643 349.743 75.5288C350.11 75.5933 350.475 75.634 350.838 75.6507C351.926 75.7008 353.012 75.7151 354.094 75.6936C355.176 75.672 356.249 75.8199 357.312 76.1372C358.399 76.4524 359.344 76.9246 360.145 77.5537C360.946 78.1828 361.545 78.9741 361.941 79.9274Z" fill="black"/>
</svg>
